<svg width="160" height="52" viewBox="0 0 160 52" fill="none" xmlns="http://www.w3.org/2000/svg">
<path d="M2.55 25.725C2.15 25.725 1.775 25.575 1.425 25.275C1.125 24.925 0.975 24.525 0.975 24.075C0.975 22.925 1.475 21.85 2.475 20.85C2.775 20.7 3.375 20.45 4.275 20.1C5.175 19.75 5.975 19.575 6.675 19.575C8.575 19.575 10.125 20.1 11.325 21.15C12.525 22.15 13.125 23.6 13.125 25.5C13.125 26.05 13.025 27.225 12.825 29.025C12.625 31.125 12.525 32.75 12.525 33.9C12.525 37.4 13 40.225 13.95 42.375C14.3 43.075 14.85 43.625 15.6 44.025C16.35 44.425 17.025 44.625 17.625 44.625C19.075 44.625 20.25 44.375 21.15 43.875C22.05 43.375 23.025 42.575 24.075 41.475C25.125 40.375 25.8 39.125 26.1 37.725C26.45 36.325 26.7 34.4 26.85 31.95C26.95 30.35 27.05 29.175 27.15 28.425C27.4 26.025 27.525 23.975 27.525 22.275C27.525 21.175 27.825 20.275 28.425 19.575C29.025 18.825 29.85 18.45 30.9 18.45C31.5 18.45 32.175 18.65 32.925 19.05C33.725 19.4 34.25 19.825 34.5 20.325C34.8 20.825 34.95 21.65 34.95 22.8C34.95 23.4 34.875 23.975 34.725 24.525C34.375 25.775 34.2 27.275 34.2 29.025L34.275 32.925C34.275 36.475 34.525 39.1 35.025 40.8C35.275 41.6 35.625 42.425 36.075 43.275C36.525 44.075 36.95 44.75 37.35 45.3C38.35 46.4 39 47.175 39.3 47.625C39.6 48.025 39.75 48.425 39.75 48.825C39.75 49.425 39.45 50 38.85 50.55C38.3 51.05 37.7 51.3 37.05 51.3C35.2 51.3 33.6 50.675 32.25 49.425C30.9 48.175 29.9 46.55 29.25 44.55C27.55 46.5 25.975 48.075 24.525 49.275C23.525 49.975 22.3 50.5 20.85 50.85C19.4 51.15 17.95 51.3 16.5 51.3C14.55 51.3 12.575 50.5 10.575 48.9C8.575 47.3 7.225 45.45 6.525 43.35C6.475 43.25 6.325 42.85 6.075 42.15C5.875 41.45 5.775 40.4 5.775 39C5.775 37.15 5.875 34.825 6.075 32.025C6.225 30.225 6.3 28.575 6.3 27.075C6.3 26.625 6.125 26.25 5.775 25.95C5.475 25.65 5.125 25.5 4.725 25.5C4.425 25.5 4.075 25.55 3.675 25.65C3.325 25.7 2.95 25.725 2.55 25.725ZM75.3551 4.05C75.3551 4.55 75.2301 5.925 74.9801 8.175C74.4301 13.675 74.1551 19.25 74.1551 24.9C74.1551 29.85 74.2301 33.625 74.3801 36.225C74.5301 38.825 74.9051 40.825 75.5051 42.225C76.1051 43.575 77.0301 44.25 78.2801 44.25C80.6801 44.25 81.8801 45.05 81.8801 46.65C81.8801 47.7 81.3551 48.6 80.3051 49.35C79.2551 50.05 78.1051 50.4 76.8551 50.4C75.3551 50.4 73.9551 50.05 72.6551 49.35C71.3551 48.65 70.3301 47.575 69.5801 46.125C68.5301 47.675 67.0051 48.925 65.0051 49.875C63.0551 50.775 61.1551 51.225 59.3051 51.225C56.4551 51.225 53.9301 50.625 51.7301 49.425C49.5301 48.225 47.8301 46.6 46.6301 44.55C45.4301 42.45 44.8301 40.15 44.8301 37.65C44.8301 35.25 45.1051 32.95 45.6551 30.75C46.2551 28.5 47.0551 26.65 48.0551 25.2C49.4051 23.3 51.2051 21.8 53.4551 20.7C55.7551 19.55 58.0051 18.975 60.2051 18.975C61.5551 18.975 62.8301 19.25 64.0301 19.8C65.2301 20.3 66.2801 20.925 67.1801 21.675C67.1801 18.325 67.1551 16.225 67.1051 15.375V13.8C67.1051 9.15 67.4051 5.75 68.0051 3.6C68.5551 1.5 69.8801 0.449998 71.9801 0.449998C73.1301 0.449998 73.9801 0.699998 74.5301 1.2C75.0801 1.7 75.3551 2.65 75.3551 4.05ZM52.2551 37.5C52.2551 39.8 52.9051 41.65 54.2051 43.05C55.5551 44.45 57.1551 45.15 59.0051 45.15C61.6551 45.15 63.6051 44.325 64.8551 42.675C66.1551 41.025 66.8051 38.9 66.8051 36.3L66.7301 28.875C64.7801 26.725 62.7551 25.65 60.6551 25.65C59.2051 25.65 57.8301 26.025 56.5301 26.775C55.2801 27.475 54.2801 28.55 53.5301 30C52.6801 31.65 52.2551 34.15 52.2551 37.5ZM116.362 26.925C116.762 27.625 117.087 28.65 117.337 30C117.587 31.3 117.712 32.475 117.712 33.525C117.712 34.875 117.562 36.375 117.262 38.025C116.962 39.675 116.687 40.95 116.437 41.85C112.987 48.15 107.887 51.3 101.137 51.3C98.6369 51.3 96.0869 50.475 93.4869 48.825C90.8869 47.175 89.0869 45.275 88.0869 43.125C86.7369 38.875 86.0619 36.15 86.0619 34.95C86.0619 32.95 86.4869 30.825 87.3369 28.575C88.2369 26.325 89.3619 24.375 90.7119 22.725C91.6119 21.575 93.1619 20.6 95.3619 19.8C97.5619 18.95 99.5619 18.525 101.362 18.525C104.862 18.525 107.812 19.2 110.212 20.55C112.662 21.85 114.712 23.975 116.362 26.925ZM109.837 39C110.087 38.5 110.212 36.825 110.212 33.975C110.212 32.525 109.937 31.1 109.387 29.7C108.887 28.3 108.137 27.1 107.137 26.1C107.037 26 106.762 25.85 106.312 25.65C105.862 25.4 105.237 25.175 104.437 24.975C103.687 24.725 102.812 24.6 101.812 24.6C99.0119 24.6 96.9619 25.725 95.6619 27.975C94.3619 30.225 93.7119 32.775 93.7119 35.625C93.7119 36.075 93.8619 37 94.1619 38.4C94.4619 39.8 94.6869 40.7 94.8369 41.1C95.2369 41.8 96.0369 42.625 97.2369 43.575C98.4869 44.475 99.8369 44.925 101.287 44.925C103.537 44.925 105.312 44.4 106.612 43.35C107.962 42.25 109.037 40.8 109.837 39ZM124.298 24.6C123.898 24.3 123.573 24 123.323 23.7C123.073 23.35 122.948 22.75 122.948 21.9C122.948 20.95 123.273 20.225 123.923 19.725C124.623 19.175 125.423 18.9 126.323 18.9C128.073 18.9 129.573 19.35 130.823 20.25C132.123 21.15 133.073 22.4 133.673 24C134.773 21.95 136.173 20.55 137.873 19.8C139.573 19 141.923 18.6 144.923 18.6C146.123 18.6 147.348 18.975 148.598 19.725C149.898 20.425 151.073 21.3 152.123 22.35C152.973 23.45 153.698 24.825 154.298 26.475C154.898 28.075 155.198 29.525 155.198 30.825C155.198 31.575 155.148 32.8 155.048 34.5C154.948 36.3 154.898 37.725 154.898 38.775C154.898 42.275 155.573 44.425 156.923 45.225C157.123 45.325 157.498 45.45 158.048 45.6C158.598 45.75 158.998 45.9 159.248 46.05C159.548 46.2 159.698 46.425 159.698 46.725C159.748 47.925 159.298 48.925 158.348 49.725C157.448 50.475 156.348 50.85 155.048 50.85C153.098 50.85 151.573 50.325 150.473 49.275C149.373 48.225 148.598 46.625 148.148 44.475C147.898 43.675 147.773 42.5 147.773 40.95C147.773 40.1 147.823 38.725 147.923 36.825C148.073 35.325 148.148 33.725 148.148 32.025C148.148 30.275 147.648 28.75 146.648 27.45C145.648 26.1 144.273 25.425 142.523 25.425C141.473 25.425 140.373 25.75 139.223 26.4C138.073 27 137.273 27.75 136.823 28.65C136.073 30.2 135.573 31.775 135.323 33.375C134.723 36.475 134.423 39.45 134.423 42.3C134.423 43 134.473 44.35 134.573 46.35C134.573 46.5 134.573 46.875 134.573 47.475C134.573 48.025 134.498 48.55 134.348 49.05C134.248 49.55 134.048 50 133.748 50.4C133.548 50.6 133.173 50.8 132.623 51C132.073 51.2 131.598 51.3 131.198 51.3C130.498 51.3 129.623 51 128.573 50.4C127.523 49.8 126.898 49.125 126.698 48.375L126.623 47.325C126.623 46.925 126.673 46.325 126.773 45.525C127.373 42.025 127.673 38.975 127.673 36.375C127.673 35.225 127.648 34.35 127.598 33.75L127.523 30.3C127.523 29.25 127.223 28.25 126.623 27.3C126.023 26.3 125.248 25.4 124.298 24.6Z" fill="white"/>
</svg>
